<svg width="19" height="19" viewBox="0 0 19 19" fill="none" xmlns="http://www.w3.org/2000/svg">
<g clip-path="url(#clip0_6695_106)">
<path d="M9.7397 0.00391433C5.88119 -0.12612 2.71251 2.96299 2.71251 6.79213C2.71251 11.1378 6.88284 14.2915 9.22031 18.8271C9.33898 19.0574 9.67049 19.0577 9.78957 18.8274C11.9041 14.7464 15.5182 12.0098 16.188 8.07811C16.8815 4.00962 13.8645 0.142975 9.7397 0.00391433ZM9.50461 10.3499C7.53974 10.3499 5.94686 8.75695 5.94686 6.79213C5.94686 4.8273 7.53978 3.23438 9.50461 3.23438C11.4695 3.23438 13.0624 4.8273 13.0624 6.79213C13.0624 8.75695 11.4695 10.3499 9.50461 10.3499Z" fill="#FAFAFA"/>
</g>
<defs>
<clipPath id="clip0_6695_106">
<rect width="19" height="19" fill="white"/>
</clipPath>
</defs>
</svg>
