<svg width="14" height="14" viewBox="0 0 14 14" fill="none" xmlns="http://www.w3.org/2000/svg">
<g clip-path="url(#clip0_6695_118)">
<path d="M13.6861 11.0641L11.524 8.90178C11.0934 8.47287 10.3802 8.4859 9.93458 8.93171L8.84532 10.0207C8.7765 9.9828 8.70527 9.94318 8.63038 9.90115C7.94252 9.52002 7.00107 8.99763 6.01038 8.00622C5.01676 7.01272 4.49389 6.06982 4.11159 5.38152C4.07125 5.3086 4.0326 5.23829 3.99443 5.17153L4.72548 4.44156L5.0849 4.0817C5.53123 3.63525 5.54354 2.92229 5.1139 2.49213L2.95182 0.329564C2.52218 -0.0999966 1.8087 -0.086965 1.36237 0.359488L0.753019 0.972335L0.769671 0.988866C0.565348 1.24958 0.39461 1.55027 0.267552 1.87453C0.150429 2.18319 0.0775083 2.47773 0.0441652 2.77287C-0.241323 5.13963 0.840219 7.30268 3.77538 10.2379C7.83267 14.2949 11.1023 13.9884 11.2434 13.9734C11.5506 13.9367 11.845 13.8633 12.1442 13.7471C12.4656 13.6216 12.7661 13.4511 13.0267 13.2472L13.04 13.259L13.6573 12.6545C14.1027 12.2081 14.1156 11.4949 13.6861 11.0641Z" fill="#FAFAFA"/>
</g>
<defs>
<clipPath id="clip0_6695_118">
<rect width="14" height="14" fill="white"/>
</clipPath>
</defs>
</svg>
