<svg width="15" height="15" viewBox="0 0 15 15" fill="none" xmlns="http://www.w3.org/2000/svg">
<g clip-path="url(#clip0_6776_24)">
<path d="M1.4397 5.23992C1.62945 5.37381 2.20142 5.77149 3.15564 6.43273C4.1099 7.09398 4.84092 7.60312 5.34874 7.96018C5.40453 7.99932 5.52307 8.08441 5.7044 8.21555C5.88576 8.34678 6.03646 8.45282 6.15637 8.53371C6.27637 8.61457 6.42144 8.70528 6.59172 8.80569C6.76194 8.90602 6.9224 8.98149 7.07307 9.03145C7.22376 9.08181 7.36326 9.10676 7.49159 9.10676H7.5H7.50844C7.63677 9.10676 7.77632 9.08179 7.92702 9.03145C8.07763 8.98149 8.23823 8.90593 8.40831 8.80569C8.57847 8.70516 8.72354 8.61454 8.84354 8.53371C8.96354 8.45282 9.11412 8.34678 9.29554 8.21555C9.47684 8.08429 9.59552 7.99932 9.65132 7.96018C10.1646 7.60312 11.4705 6.69627 13.5687 5.23974C13.976 4.95527 14.3164 4.61201 14.5897 4.2102C14.8633 3.80857 15 3.38724 15 2.94643C15 2.57808 14.8674 2.26276 14.6023 2.00051C14.3372 1.7382 14.0233 1.60712 13.6607 1.60712H1.33923C0.909571 1.60712 0.578919 1.75218 0.347334 2.04232C0.115778 2.33251 0 2.69524 0 3.13047C0 3.48202 0.153511 3.86298 0.460385 4.27312C0.76723 4.68328 1.09378 5.00558 1.4397 5.23992Z" fill="#FAFAFA"/>
<path d="M14.1628 6.13549C12.3327 7.37422 10.943 8.33692 9.99445 9.02337C9.67638 9.25766 9.41835 9.44054 9.22019 9.5716C9.02203 9.70274 8.75848 9.83666 8.42918 9.97332C8.1 10.1102 7.79321 10.1784 7.50856 10.1784H7.50003H7.49161C7.20702 10.1784 6.90006 10.1102 6.57087 9.97332C6.24168 9.83666 5.97797 9.70274 5.77986 9.5716C5.58182 9.44054 5.3237 9.25766 5.00566 9.02337C4.25226 8.47096 2.86557 7.50821 0.84551 6.13549C0.527348 5.92358 0.245541 5.68068 0 5.40729V12.0533C0 12.4218 0.131082 12.737 0.393393 12.9993C0.655645 13.2616 0.970992 13.3928 1.33932 13.3928H13.6608C14.029 13.3928 14.3443 13.2616 14.6066 12.9993C14.869 12.7369 15 12.4219 15 12.0533V5.40729C14.76 5.67502 14.4811 5.91792 14.1628 6.13549Z" fill="#FAFAFA"/>
</g>
<defs>
<clipPath id="clip0_6776_24">
<rect width="15" height="15" fill="white"/>
</clipPath>
</defs>
</svg>
