<svg width="19" height="19" viewBox="0 0 19 19" fill="none" xmlns="http://www.w3.org/2000/svg">
<g clip-path="url(#clip0_6776_19)">
<path d="M9.7397 0.00389907C5.88119 -0.126135 2.71251 2.96297 2.71251 6.79211C2.71251 11.1378 6.88284 14.2915 9.22031 18.8271C9.33898 19.0574 9.67049 19.0577 9.78957 18.8274C11.9041 14.7463 15.5182 12.0097 16.188 8.07809C16.8815 4.00961 13.8645 0.142959 9.7397 0.00389907ZM9.50461 10.3499C7.53974 10.3499 5.94686 8.75694 5.94686 6.79211C5.94686 4.82729 7.53978 3.23436 9.50461 3.23436C11.4695 3.23436 13.0624 4.82729 13.0624 6.79211C13.0624 8.75694 11.4695 10.3499 9.50461 10.3499Z" fill="#FAFAFA"/>
</g>
<defs>
<clipPath id="clip0_6776_19">
<rect width="19" height="19" fill="white"/>
</clipPath>
</defs>
</svg>
