<svg width="33" height="33" viewBox="0 0 33 33" fill="none" xmlns="http://www.w3.org/2000/svg">
<g clip-path="url(#clip0_19_946)">
<path d="M32.7803 30.6593L22.7527 20.631C24.4674 18.4595 25.5 15.7253 25.5 12.75C25.5 5.71951 19.7798 0 12.7501 0C5.72028 0 0 5.71951 0 12.75C0 19.7805 5.72021 25.5 12.75 25.5C15.7255 25.5 18.4599 24.4672 20.6317 22.7522L30.6591 32.7803C30.9521 33.0733 31.427 33.0733 31.7198 32.7803L32.7803 31.7199C33.0732 31.4271 33.0732 30.9522 32.7803 30.6593ZM12.7501 22.5C7.3741 22.5 3.00003 18.126 3.00003 12.75C3.00003 7.37403 7.37403 2.99996 12.7501 2.99996C18.126 2.99996 22.5001 7.37396 22.5001 12.75C22.5001 18.126 18.126 22.5 12.7501 22.5Z" fill="#252525"/>
<g clip-path="url(#clip1_19_946)">
<path d="M12.3622 12.3326C12.663 12.0452 13.0205 11.8816 13.4347 11.842C13.849 11.8023 14.2359 11.8847 14.5956 12.089C14.6784 12.1469 14.875 12.281 15.1855 12.4912C15.496 12.7014 15.7239 12.8467 15.8692 12.927C16.0145 13.0073 16.2267 13.0717 16.5058 13.1201C16.785 13.1684 17.0727 13.1469 17.369 13.0556C17.8367 12.8278 18.2379 12.739 18.5731 12.7886C18.9082 12.8383 19.2674 13.0636 19.6507 13.4646C19.9791 13.8083 20.1584 14.2467 20.1883 14.7799C20.2183 15.313 20.0747 15.7721 19.7577 16.1573C19.1231 16.9556 18.362 17.4637 17.4743 17.6818C17.2162 18.5587 16.674 19.296 15.8478 19.8938C15.4487 20.193 14.9835 20.3156 14.4523 20.2615C13.9211 20.2075 13.4913 20.0085 13.1628 19.6648C12.7932 19.2781 12.5914 18.9092 12.5573 18.5582C12.5233 18.2071 12.6237 17.7961 12.8585 17.325C12.9775 17.0194 13.0192 16.7261 12.9836 16.4451C12.9479 16.164 12.883 15.9383 12.7887 15.7681C12.6945 15.5978 12.5594 15.3776 12.3834 15.1074C12.2073 14.8372 12.0789 14.6311 11.9981 14.4891C11.8096 14.1486 11.748 13.7759 11.8132 13.371C11.8785 12.9662 12.0615 12.62 12.3622 12.3326Z" fill="#252525"/>
<path d="M15.9288 7.97876C15.7464 7.98866 15.6069 8.27275 15.5102 8.83098C15.4134 9.38926 15.3818 9.85793 15.4152 10.237C15.4343 10.6298 15.5842 10.9729 15.8648 11.2665C16.1454 11.5602 16.4814 11.7254 16.8729 11.7623C17.2644 11.7992 17.5962 11.6876 17.8683 11.4276C18.0545 11.2496 18.1683 11.0175 18.2099 10.7312C18.2514 10.4449 18.2121 10.1673 18.0921 9.89836C17.9068 9.41778 17.5982 8.9729 17.1661 8.56377C16.734 8.15464 16.3216 7.95965 15.9288 7.97876Z" fill="#252525"/>
<path d="M7.85121 15.6982C7.81432 16.0897 7.99042 16.5105 8.37955 16.9607C8.76868 17.4109 9.19909 17.7394 9.6708 17.9463C9.93402 18.0784 10.2096 18.1302 10.4975 18.1017C10.7854 18.0731 11.0224 17.9699 11.2086 17.792C11.4807 17.5319 11.6072 17.2055 11.5881 16.8128C11.569 16.42 11.4191 16.0768 11.1385 15.7832C10.8579 15.4896 10.5219 15.3244 10.1304 15.2875C9.75325 15.2369 9.2836 15.2473 8.72153 15.3186C8.15944 15.39 7.86933 15.5165 7.85121 15.6982Z" fill="#252525"/>
<path d="M9.35548 6.82096C10.2377 6.22444 11.1979 6.21112 12.2359 6.78111C13.1767 7.30688 13.7213 8.00578 13.8697 8.87787C13.9952 9.52525 13.7948 10.0182 13.2687 10.3565C12.9698 10.5599 12.6352 10.6399 12.2649 10.5965C11.8945 10.5531 11.565 10.409 11.2763 10.1643C11.0424 9.97682 10.8022 9.75418 10.5559 9.49639C10.3095 9.23859 10.0328 8.92757 9.72582 8.56331C9.41882 8.19905 9.21993 7.85477 9.12922 7.53043C9.03861 7.20599 9.11394 6.96959 9.35548 6.82096Z" fill="#252525"/>
<path d="M6.99243 9.07925C7.15187 8.84467 7.39154 8.78003 7.71142 8.88537C8.03129 8.99071 8.36622 9.20497 8.71619 9.52817C9.06616 9.85136 9.36433 10.1419 9.6107 10.3997C9.85706 10.6575 10.0686 10.9075 10.2452 11.1497C10.4767 11.4491 10.6056 11.7848 10.6322 12.1568C10.6589 12.5287 10.5638 12.8593 10.347 13.1486C9.85566 13.81 9.18059 13.9208 8.32183 13.481C7.42139 13.0262 6.83538 12.2984 6.56383 11.2974C6.35816 10.48 6.50105 9.74067 6.99243 9.07925Z" fill="#252525"/>
</g>
</g>
<defs>
<clipPath id="clip0_19_946">
<rect width="33" height="33" fill="white"/>
</clipPath>
<clipPath id="clip1_19_946">
<rect width="14" height="14" fill="white" transform="translate(3.10306 12.7756) rotate(-43.7013)"/>
</clipPath>
</defs>
</svg>
