<svg width="15" height="19" viewBox="0 0 15 19" fill="none" xmlns="http://www.w3.org/2000/svg">
<path d="M7.7397 0.00389907C3.88119 -0.126135 0.712509 2.96297 0.712509 6.79211C0.712509 11.1378 4.88284 14.2915 7.22031 18.8271C7.33898 19.0574 7.67049 19.0577 7.78957 18.8274C9.90415 14.7463 13.5182 12.0097 14.188 8.07809C14.8815 4.00961 11.8645 0.142959 7.7397 0.00389907ZM7.50461 10.3499C5.53974 10.3499 3.94686 8.75694 3.94686 6.79211C3.94686 4.82729 5.53978 3.23436 7.50461 3.23436C9.46947 3.23436 11.0624 4.82729 11.0624 6.79211C11.0624 8.75694 9.46947 10.3499 7.50461 10.3499Z" fill="#FAFAFA"/>
</svg>
