<svg width="15" height="15" viewBox="0 0 15 15" fill="none" xmlns="http://www.w3.org/2000/svg">
<g clip-path="url(#clip0_6695_111)">
<path d="M1.4397 5.23995C1.62945 5.37384 2.20142 5.77152 3.15564 6.43276C4.1099 7.09401 4.84092 7.60315 5.34874 7.96022C5.40453 7.99936 5.52307 8.08444 5.7044 8.21558C5.88576 8.34681 6.03646 8.45285 6.15637 8.53374C6.27637 8.6146 6.42144 8.70531 6.59172 8.80573C6.76194 8.90605 6.9224 8.98152 7.07307 9.03148C7.22376 9.08185 7.36326 9.10679 7.49159 9.10679H7.5H7.50844C7.63677 9.10679 7.77632 9.08182 7.92702 9.03148C8.07763 8.98152 8.23823 8.90596 8.40831 8.80573C8.57847 8.70519 8.72354 8.61457 8.84354 8.53374C8.96354 8.45285 9.11412 8.34681 9.29554 8.21558C9.47684 8.08432 9.59552 7.99936 9.65132 7.96022C10.1646 7.60315 11.4705 6.6963 13.5687 5.23977C13.976 4.9553 14.3164 4.61204 14.5897 4.21023C14.8633 3.8086 15 3.38727 15 2.94647C15 2.57811 14.8674 2.26279 14.6023 2.00054C14.3372 1.73823 14.0233 1.60715 13.6607 1.60715H1.33923C0.909571 1.60715 0.578919 1.75221 0.347334 2.04235C0.115778 2.33254 0 2.69527 0 3.1305C0 3.48205 0.153511 3.86301 0.460385 4.27315C0.76723 4.68331 1.09378 5.00561 1.4397 5.23995Z" fill="#FAFAFA"/>
<path d="M14.1628 6.13549C12.3327 7.37422 10.943 8.33692 9.99445 9.02337C9.67638 9.25766 9.41835 9.44054 9.22019 9.5716C9.02203 9.70274 8.75848 9.83666 8.42918 9.97332C8.1 10.1102 7.79321 10.1784 7.50856 10.1784H7.50003H7.49161C7.20702 10.1784 6.90006 10.1102 6.57087 9.97332C6.24168 9.83666 5.97797 9.70274 5.77986 9.5716C5.58182 9.44054 5.3237 9.25766 5.00566 9.02337C4.25226 8.47096 2.86557 7.50821 0.84551 6.13549C0.527348 5.92358 0.245541 5.68068 0 5.40729V12.0533C0 12.4218 0.131082 12.737 0.393393 12.9993C0.655645 13.2616 0.970992 13.3928 1.33932 13.3928H13.6608C14.029 13.3928 14.3443 13.2616 14.6066 12.9993C14.869 12.7369 15 12.4219 15 12.0533V5.40729C14.76 5.67502 14.4811 5.91792 14.1628 6.13549Z" fill="#FAFAFA"/>
</g>
<defs>
<clipPath id="clip0_6695_111">
<rect width="15" height="15" fill="white"/>
</clipPath>
</defs>
</svg>
